<svg width="60" height="60" viewBox="0 0 60 60" fill="none" xmlns="http://www.w3.org/2000/svg">
<path fill-rule="evenodd" clip-rule="evenodd" d="M5 17.5C5 10.5964 10.5964 5 17.5 5H42.5C49.4036 5 55 10.5964 55 17.5V42.5C55 49.4036 49.4036 55 42.5 55H17.5C10.5964 55 5 49.4036 5 42.5V17.5ZM17.5 10C13.3579 10 10 13.3579 10 17.5V42.5C10 46.6421 13.3579 50 17.5 50H42.5C46.6421 50 50 46.6421 50 42.5V17.5C50 13.3579 46.6421 10 42.5 10H17.5ZM25.7322 20.7322C26.7085 19.7559 28.2915 19.7559 29.2678 20.7322L36.7678 28.2322C37.7441 29.2085 37.7441 30.7915 36.7678 31.7678L29.2678 39.2678C28.2915 40.2441 26.7085 40.2441 25.7322 39.2678C24.7559 38.2915 24.7559 36.7085 25.7322 35.7322L31.4645 30L25.7322 24.2678C24.7559 23.2915 24.7559 21.7085 25.7322 20.7322Z" fill="white"/>
</svg>
