<svg width="30" height="35" viewBox="0 0 30 35" fill="none" xmlns="http://www.w3.org/2000/svg">
<path d="M10.4357 32.5492L13.2863 25.0867C13.4039 24.7787 13.4628 24.6247 13.3882 24.5165C13.3137 24.4083 13.1489 24.4083 12.8192 24.4083H5.65554C5.18073 24.4083 4.94333 24.4083 4.87677 24.2616C4.81021 24.1148 4.96658 23.9362 5.27932 23.579L10.2503 17.9003C10.563 17.5431 10.7194 17.3645 10.6528 17.2177C10.5863 17.071 10.3489 17.071 9.87406 17.071H1.48483C1.13162 17.071 0.955014 17.071 0.881328 16.9553C0.807641 16.8396 0.882351 16.6795 1.03177 16.3595L8.27241 0.850615C8.33785 0.710456 8.37057 0.640376 8.432 0.601255C8.49344 0.562134 8.57079 0.562134 8.72547 0.562134H25.318C25.782 0.562134 26.014 0.562134 26.0813 0.706563C26.1485 0.850993 25.9993 1.0286 25.7008 1.38381L19.3743 8.91205C19.0758 9.26727 18.9265 9.44487 18.9938 9.5893C19.0611 9.73373 19.2931 9.73373 19.7571 9.73373H25.1409C25.6705 9.73373 25.9354 9.73373 25.9982 9.89091C26.0611 10.0481 25.8693 10.2307 25.4856 10.5959L19.5894 16.2089C19.2058 16.5741 19.014 16.7567 19.0768 16.9138C19.1397 17.071 19.4045 17.071 19.9342 17.071H27.6621C28.2093 17.071 28.4829 17.071 28.5446 17.2312C28.6063 17.3913 28.4034 17.5748 27.9975 17.9419L11.2382 33.0984L11.2382 33.0984C10.6252 33.6528 10.3187 33.93 10.156 33.8186C9.99336 33.7073 10.1408 33.3212 10.4357 32.5492Z" stroke="#222222"/>
</svg>
